<svg xmlns="http://www.w3.org/2000/svg" viewBox="0 0 385 375" role="img" aria-labelledby="title desc"><title id="title">Protolume</title><desc id="desc">Protolume favicon</desc><defs><linearGradient id="brandGradient" x1="0" y1="0" x2="1" y2="1"><stop offset="0" stop-color="#7C3AED"/><stop offset="0.55" stop-color="#6847F5"/><stop offset="1" stop-color="#4338CA"/></linearGradient></defs><path fill="#171B26" fill-rule="evenodd" d="M 208 254 L 167 254 L 167 304 L 164 314 L 158 324 L 149 333 L 135 340 L 133 339 L 133 298 L 107 267 L 93 267 L 94 270 L 93 279 L 94 280 L 93 286 L 94 288 L 93 291 L 94 301 L 93 308 L 94 309 L 94 350 L 93 354 L 94 360 L 158 360 L 173 356 L 185 349 L 197 337 L 201 331 L 207 315 L 208 309 Z M 93 254 L 101 256 L 112 256 L 133 282 L 133 151 L 134 150 L 282 150 L 283 143 L 280 133 L 276 126 L 264 115 L 258 112 L 246 109 L 93 109 L 93 208 L 99 209 L 99 219 L 93 221 L 93 246 L 94 247 Z"/><path fill="url(#brandGradient)" fill-rule="evenodd" d="M 92 299 L 80 299 L 67 312 L 54 311 L 48 314 L 42 323 L 42 330 L 46 338 L 53 342 L 58 343 L 67 340 L 73 333 L 74 329 L 73 318 L 82 309 L 93 309 Z M 56 319 L 60 319 L 65 323 L 66 328 L 61 334 L 55 334 L 50 328 L 51 323 Z M 28 258 L 29 266 L 31 270 L 39 276 L 49 276 L 56 272 L 60 266 L 107 266 L 133 297 L 133 283 L 111 256 L 110 257 L 61 256 L 56 249 L 49 245 L 37 246 L 31 251 Z M 42 253 L 47 253 L 52 258 L 52 263 L 47 268 L 42 268 L 37 264 L 37 257 Z M 35 174 L 31 183 L 31 188 L 33 194 L 39 201 L 48 204 L 60 202 L 77 219 L 87 219 L 88 220 L 98 219 L 98 209 L 82 209 L 67 194 L 68 182 L 65 175 L 61 171 L 55 168 L 45 168 L 38 171 Z M 47 177 L 54 178 L 58 183 L 58 189 L 53 194 L 47 194 L 41 188 L 42 181 Z M 92 26 L 93 27 L 93 64 L 92 65 L 93 67 L 95 66 L 152 66 L 153 67 L 252 67 L 273 73 L 295 87 L 307 100 L 318 121 L 321 134 L 320 159 L 314 173 L 300 189 L 280 201 L 258 207 L 177 207 L 173 208 L 169 211 L 167 216 L 167 253 L 270 253 L 282 251 L 303 244 L 316 237 L 327 229 L 345 210 L 357 189 L 363 171 L 365 160 L 364 125 L 357 100 L 349 84 L 334 64 L 316 48 L 291 34 L 262 26 L 251 26 L 250 25 L 93 25 Z"/></svg>
