<svg xmlns="http://www.w3.org/2000/svg" viewBox="0 0 1130 615" role="img" aria-labelledby="title desc"><title id="title">Protolume</title><desc id="desc">Stacked Protolume logo with tagline IT and AI Solutions</desc><defs><linearGradient id="brandGradient" x1="0" y1="0" x2="1" y2="1"><stop offset="0" stop-color="#7C3AED"/><stop offset="0.55" stop-color="#6847F5"/><stop offset="1" stop-color="#4338CA"/></linearGradient></defs><path fill="#171B26" fill-rule="evenodd" d="M 869 554 L 867 557 L 867 562 L 870 565 L 879 567 L 882 570 L 882 572 L 879 575 L 873 575 L 870 572 L 867 572 L 867 574 L 873 578 L 882 577 L 885 574 L 885 568 L 879 564 L 873 563 L 870 560 L 870 558 L 873 555 L 878 555 L 881 558 L 884 558 L 884 556 L 880 553 Z M 822 553 L 822 578 L 825 577 L 825 561 L 826 560 L 828 561 L 837 575 L 840 578 L 843 577 L 843 553 L 840 553 L 840 570 L 839 571 L 837 570 L 826 553 Z M 781 553 L 775 558 L 774 570 L 780 577 L 789 578 L 796 573 L 798 569 L 798 561 L 796 557 L 791 553 Z M 784 555 L 790 556 L 794 560 L 795 568 L 793 572 L 789 575 L 781 574 L 777 568 L 777 562 L 779 558 Z M 747 553 L 747 578 L 750 577 L 750 553 Z M 705 553 L 704 555 L 712 556 L 712 577 L 715 578 L 715 556 L 723 555 L 723 553 Z M 661 553 L 661 571 L 663 575 L 668 578 L 677 577 L 681 573 L 681 553 L 678 553 L 678 571 L 674 575 L 668 575 L 665 572 L 664 553 Z M 624 553 L 624 578 L 638 578 L 639 575 L 628 575 L 627 574 L 627 553 Z M 583 553 L 576 560 L 575 564 L 576 571 L 582 577 L 585 578 L 593 577 L 599 571 L 600 568 L 599 559 L 596 555 L 592 553 Z M 583 556 L 586 555 L 592 556 L 596 561 L 596 570 L 591 575 L 584 575 L 579 570 L 579 561 Z M 539 553 L 535 556 L 534 560 L 536 564 L 548 568 L 549 573 L 547 575 L 541 575 L 537 572 L 534 573 L 536 576 L 540 578 L 547 578 L 551 576 L 553 573 L 553 569 L 551 566 L 539 562 L 538 557 L 541 555 L 546 555 L 549 558 L 552 558 L 548 553 Z M 480 553 L 480 577 L 483 578 L 484 577 L 484 553 Z M 443 553 L 434 578 L 437 578 L 440 572 L 451 572 L 453 577 L 456 578 L 457 577 L 448 553 Z M 445 557 L 447 558 L 450 567 L 449 569 L 441 568 Z M 376 553 L 373 557 L 375 564 L 371 567 L 370 570 L 371 575 L 376 578 L 381 578 L 385 576 L 392 578 L 389 573 L 392 566 L 389 566 L 389 568 L 385 570 L 381 565 L 386 559 L 385 555 L 383 553 Z M 374 568 L 378 566 L 384 572 L 384 574 L 376 575 L 373 571 Z M 378 555 L 381 555 L 383 557 L 383 559 L 380 562 L 378 562 L 376 559 Z M 315 553 L 315 555 L 321 555 L 323 557 L 323 576 L 322 577 L 325 578 L 326 577 L 326 556 L 334 555 L 334 553 Z M 288 553 L 288 577 L 291 578 L 292 577 L 291 576 L 292 569 L 291 555 L 292 554 Z M 385 410 L 385 423 L 386 424 L 425 424 L 426 425 L 426 509 L 439 509 L 440 508 L 440 425 L 441 424 L 480 424 L 480 410 Z M 144 410 L 154 423 L 198 423 L 205 425 L 212 431 L 215 437 L 215 446 L 213 451 L 207 457 L 199 460 L 149 460 L 149 473 L 173 473 L 174 472 L 189 473 L 214 509 L 230 509 L 206 473 L 207 471 L 219 465 L 225 458 L 228 452 L 229 435 L 223 422 L 215 415 L 202 410 Z M 105 415 L 92 410 L 30 410 L 30 423 L 87 423 L 96 426 L 103 433 L 105 439 L 105 446 L 101 454 L 96 458 L 89 461 L 30 461 L 30 509 L 45 509 L 45 475 L 46 474 L 93 474 L 105 469 L 112 463 L 118 452 L 119 436 L 114 424 Z M 548 411 L 532 418 L 520 429 L 516 435 L 510 451 L 510 468 L 513 478 L 518 487 L 525 495 L 536 503 L 552 509 L 569 510 L 586 506 L 600 498 L 609 489 L 616 477 L 619 465 L 619 454 L 616 442 L 606 426 L 599 420 L 587 413 L 571 409 L 557 409 Z M 551 424 L 566 422 L 580 425 L 593 433 L 602 445 L 605 456 L 605 463 L 603 471 L 599 479 L 589 489 L 582 493 L 572 496 L 556 496 L 549 494 L 538 488 L 531 481 L 525 470 L 524 453 L 527 444 L 538 431 Z M 291 411 L 273 420 L 260 434 L 255 445 L 253 456 L 254 470 L 257 479 L 264 490 L 272 498 L 286 506 L 303 510 L 320 509 L 330 506 L 345 497 L 354 487 L 360 476 L 363 461 L 360 443 L 353 430 L 344 421 L 333 414 L 315 409 L 300 409 Z M 295 424 L 310 422 L 326 426 L 333 430 L 342 439 L 346 446 L 348 452 L 348 466 L 346 473 L 342 480 L 334 488 L 323 494 L 316 496 L 299 496 L 292 494 L 283 489 L 273 479 L 269 471 L 267 456 L 271 443 L 283 430 Z M 578 259 L 537 259 L 537 309 L 534 319 L 528 329 L 519 338 L 505 345 L 503 344 L 503 303 L 477 272 L 463 272 L 464 275 L 463 284 L 464 285 L 463 291 L 464 293 L 463 296 L 464 306 L 463 313 L 464 314 L 464 355 L 463 359 L 464 365 L 528 365 L 543 361 L 555 354 L 567 342 L 571 336 L 577 320 L 578 314 Z M 463 259 L 471 261 L 482 261 L 503 287 L 503 156 L 504 155 L 652 155 L 653 148 L 650 138 L 646 131 L 634 120 L 628 117 L 616 114 L 463 114 L 463 213 L 469 214 L 469 224 L 463 226 L 463 251 L 464 252 Z"/><path fill="url(#brandGradient)" fill-rule="evenodd" d="M 1030 495 L 1030 509 L 1113 509 L 1113 495 Z M 1030 452 L 1030 466 L 1031 467 L 1032 466 L 1091 466 L 1092 467 L 1092 452 Z M 1030 410 L 1030 424 L 1113 424 L 1113 410 Z M 888 410 L 888 509 L 902 509 L 903 508 L 903 470 L 902 469 L 903 467 L 903 454 L 902 453 L 903 439 L 902 436 L 903 435 L 905 436 L 939 482 L 941 481 L 973 437 L 975 436 L 976 437 L 976 509 L 991 509 L 991 410 L 975 410 L 940 457 L 936 454 L 904 410 Z M 772 410 L 772 476 L 775 487 L 779 494 L 785 501 L 792 506 L 806 511 L 823 511 L 830 509 L 841 503 L 851 492 L 856 480 L 856 410 L 842 410 L 842 474 L 837 486 L 831 492 L 820 497 L 804 496 L 797 492 L 790 484 L 787 476 L 787 410 Z M 660 410 L 660 509 L 738 509 L 738 495 L 676 495 L 675 494 L 675 410 Z M 462 304 L 450 304 L 437 317 L 424 316 L 418 319 L 412 328 L 412 335 L 416 343 L 423 347 L 428 348 L 437 345 L 443 338 L 444 334 L 443 323 L 452 314 L 463 314 Z M 426 324 L 430 324 L 435 328 L 436 333 L 431 339 L 425 339 L 420 333 L 421 328 Z M 398 263 L 399 271 L 401 275 L 409 281 L 419 281 L 426 277 L 430 271 L 477 271 L 503 302 L 503 288 L 481 261 L 480 262 L 431 261 L 426 254 L 419 250 L 407 251 L 401 256 Z M 412 258 L 417 258 L 422 263 L 422 268 L 417 273 L 412 273 L 407 269 L 407 262 Z M 405 179 L 401 188 L 401 193 L 403 199 L 409 206 L 418 209 L 430 207 L 447 224 L 457 224 L 458 225 L 468 224 L 468 214 L 452 214 L 437 199 L 438 187 L 435 180 L 431 176 L 425 173 L 415 173 L 408 176 Z M 417 182 L 424 183 L 428 188 L 428 194 L 423 199 L 417 199 L 411 193 L 412 186 Z M 462 31 L 463 32 L 463 69 L 462 70 L 463 72 L 465 71 L 522 71 L 523 72 L 622 72 L 643 78 L 665 92 L 677 105 L 688 126 L 691 139 L 690 164 L 684 178 L 670 194 L 650 206 L 628 212 L 547 212 L 543 213 L 539 216 L 537 221 L 537 258 L 640 258 L 652 256 L 673 249 L 686 242 L 697 234 L 715 215 L 727 194 L 733 176 L 735 165 L 734 130 L 727 105 L 719 89 L 704 69 L 686 53 L 661 39 L 632 31 L 621 31 L 620 30 L 463 30 Z"/></svg>
