<svg xmlns="http://www.w3.org/2000/svg" viewBox="0 0 957 190" role="img" aria-labelledby="title desc"><title id="title">Protolume</title><desc id="desc">Horizontal Protolume logo for light backgrounds</desc><defs><linearGradient id="brandGradient" x1="0" y1="0" x2="1" y2="1"><stop offset="0" stop-color="#7C3AED"/><stop offset="0.55" stop-color="#6847F5"/><stop offset="1" stop-color="#4338CA"/></linearGradient></defs><g transform="translate(0 5) scale(0.480000)"><path fill="#171B26" fill-rule="evenodd" d="M 208 254 L 167 254 L 167 304 L 164 314 L 158 324 L 149 333 L 135 340 L 133 339 L 133 298 L 107 267 L 93 267 L 94 270 L 93 279 L 94 280 L 93 286 L 94 288 L 93 291 L 94 301 L 93 308 L 94 309 L 94 350 L 93 354 L 94 360 L 158 360 L 173 356 L 185 349 L 197 337 L 201 331 L 207 315 L 208 309 Z M 93 254 L 101 256 L 112 256 L 133 282 L 133 151 L 134 150 L 282 150 L 283 143 L 280 133 L 276 126 L 264 115 L 258 112 L 246 109 L 93 109 L 93 208 L 99 209 L 99 219 L 93 221 L 93 246 L 94 247 Z"/><path fill="url(#brandGradient)" fill-rule="evenodd" d="M 92 299 L 80 299 L 67 312 L 54 311 L 48 314 L 42 323 L 42 330 L 46 338 L 53 342 L 58 343 L 67 340 L 73 333 L 74 329 L 73 318 L 82 309 L 93 309 Z M 56 319 L 60 319 L 65 323 L 66 328 L 61 334 L 55 334 L 50 328 L 51 323 Z M 28 258 L 29 266 L 31 270 L 39 276 L 49 276 L 56 272 L 60 266 L 107 266 L 133 297 L 133 283 L 111 256 L 110 257 L 61 256 L 56 249 L 49 245 L 37 246 L 31 251 Z M 42 253 L 47 253 L 52 258 L 52 263 L 47 268 L 42 268 L 37 264 L 37 257 Z M 35 174 L 31 183 L 31 188 L 33 194 L 39 201 L 48 204 L 60 202 L 77 219 L 87 219 L 88 220 L 98 219 L 98 209 L 82 209 L 67 194 L 68 182 L 65 175 L 61 171 L 55 168 L 45 168 L 38 171 Z M 47 177 L 54 178 L 58 183 L 58 189 L 53 194 L 47 194 L 41 188 L 42 181 Z M 92 26 L 93 27 L 93 64 L 92 65 L 93 67 L 95 66 L 152 66 L 153 67 L 252 67 L 273 73 L 295 87 L 307 100 L 318 121 L 321 134 L 320 159 L 314 173 L 300 189 L 280 201 L 258 207 L 177 207 L 173 208 L 169 211 L 167 216 L 167 253 L 270 253 L 282 251 L 303 244 L 316 237 L 327 229 L 345 210 L 357 189 L 363 171 L 365 160 L 364 125 L 357 100 L 349 84 L 334 64 L 316 48 L 291 34 L 262 26 L 251 26 L 250 25 L 93 25 Z"/></g><g transform="translate(209.80 22.50) scale(0.659091)"><path fill="#171B26" fill-rule="evenodd" d="M 864 164 L 862 167 L 862 172 L 865 175 L 874 177 L 877 180 L 877 182 L 874 185 L 868 185 L 865 182 L 862 182 L 862 184 L 868 188 L 877 187 L 880 184 L 880 178 L 874 174 L 868 173 L 865 170 L 865 168 L 868 165 L 873 165 L 876 168 L 879 168 L 879 166 L 875 163 Z M 817 163 L 817 188 L 820 187 L 820 171 L 821 170 L 823 171 L 832 185 L 835 188 L 838 187 L 838 163 L 835 163 L 835 180 L 834 181 L 832 180 L 821 163 Z M 776 163 L 770 168 L 769 180 L 775 187 L 784 188 L 791 183 L 793 179 L 793 171 L 791 167 L 786 163 Z M 779 165 L 785 166 L 789 170 L 790 178 L 788 182 L 784 185 L 776 184 L 772 178 L 772 172 L 774 168 Z M 742 163 L 742 188 L 745 187 L 745 163 Z M 700 163 L 699 165 L 707 166 L 707 187 L 710 188 L 710 166 L 718 165 L 718 163 Z M 656 163 L 656 181 L 658 185 L 663 188 L 672 187 L 676 183 L 676 163 L 673 163 L 673 181 L 669 185 L 663 185 L 660 182 L 659 163 Z M 619 163 L 619 188 L 633 188 L 634 185 L 623 185 L 622 184 L 622 163 Z M 578 163 L 571 170 L 570 174 L 571 181 L 577 187 L 580 188 L 588 187 L 594 181 L 595 178 L 594 169 L 591 165 L 587 163 Z M 578 166 L 581 165 L 587 166 L 591 171 L 591 180 L 586 185 L 579 185 L 574 180 L 574 171 Z M 534 163 L 530 166 L 529 170 L 531 174 L 543 178 L 544 183 L 542 185 L 536 185 L 532 182 L 529 183 L 531 186 L 535 188 L 542 188 L 546 186 L 548 183 L 548 179 L 546 176 L 534 172 L 533 167 L 536 165 L 541 165 L 544 168 L 547 168 L 543 163 Z M 475 163 L 475 187 L 478 188 L 479 187 L 479 163 Z M 438 163 L 429 188 L 432 188 L 435 182 L 446 182 L 448 187 L 451 188 L 452 187 L 443 163 Z M 440 167 L 442 168 L 445 177 L 444 179 L 436 178 Z M 371 163 L 368 167 L 370 174 L 366 177 L 365 180 L 366 185 L 371 188 L 376 188 L 380 186 L 387 188 L 384 183 L 387 176 L 384 176 L 384 178 L 380 180 L 376 175 L 381 169 L 380 165 L 378 163 Z M 369 178 L 373 176 L 379 182 L 379 184 L 371 185 L 368 181 Z M 373 165 L 376 165 L 378 167 L 378 169 L 375 172 L 373 172 L 371 169 Z M 310 163 L 310 165 L 316 165 L 318 167 L 318 186 L 317 187 L 320 188 L 321 187 L 321 166 L 329 165 L 329 163 Z M 283 163 L 283 187 L 286 188 L 287 187 L 286 186 L 287 179 L 286 165 L 287 164 Z M 380 20 L 380 33 L 381 34 L 420 34 L 421 35 L 421 119 L 434 119 L 435 118 L 435 35 L 436 34 L 475 34 L 475 20 Z M 139 20 L 149 33 L 193 33 L 200 35 L 207 41 L 210 47 L 210 56 L 208 61 L 202 67 L 194 70 L 144 70 L 144 83 L 168 83 L 169 82 L 184 83 L 209 119 L 225 119 L 201 83 L 202 81 L 214 75 L 220 68 L 223 62 L 224 45 L 218 32 L 210 25 L 197 20 Z M 100 25 L 87 20 L 25 20 L 25 33 L 82 33 L 91 36 L 98 43 L 100 49 L 100 56 L 96 64 L 91 68 L 84 71 L 25 71 L 25 119 L 40 119 L 40 85 L 41 84 L 88 84 L 100 79 L 107 73 L 113 62 L 114 46 L 109 34 Z M 543 21 L 527 28 L 515 39 L 511 45 L 505 61 L 505 78 L 508 88 L 513 97 L 520 105 L 531 113 L 547 119 L 564 120 L 581 116 L 595 108 L 604 99 L 611 87 L 614 75 L 614 64 L 611 52 L 601 36 L 594 30 L 582 23 L 566 19 L 552 19 Z M 546 34 L 561 32 L 575 35 L 588 43 L 597 55 L 600 66 L 600 73 L 598 81 L 594 89 L 584 99 L 577 103 L 567 106 L 551 106 L 544 104 L 533 98 L 526 91 L 520 80 L 519 63 L 522 54 L 533 41 Z M 286 21 L 268 30 L 255 44 L 250 55 L 248 66 L 249 80 L 252 89 L 259 100 L 267 108 L 281 116 L 298 120 L 315 119 L 325 116 L 340 107 L 349 97 L 355 86 L 358 71 L 355 53 L 348 40 L 339 31 L 328 24 L 310 19 L 295 19 Z M 290 34 L 305 32 L 321 36 L 328 40 L 337 49 L 341 56 L 343 62 L 343 76 L 341 83 L 337 90 L 329 98 L 318 104 L 311 106 L 294 106 L 287 104 L 278 99 L 268 89 L 264 81 L 262 66 L 266 53 L 278 40 Z"/><path fill="url(#brandGradient)" fill-rule="evenodd" d="M 1025 105 L 1025 119 L 1108 119 L 1108 105 Z M 1025 62 L 1025 76 L 1026 77 L 1027 76 L 1086 76 L 1087 77 L 1087 62 Z M 1025 20 L 1025 34 L 1108 34 L 1108 20 Z M 883 20 L 883 119 L 897 119 L 898 118 L 898 80 L 897 79 L 898 77 L 898 64 L 897 63 L 898 49 L 897 46 L 898 45 L 900 46 L 934 92 L 936 91 L 968 47 L 970 46 L 971 47 L 971 119 L 986 119 L 986 20 L 970 20 L 935 67 L 931 64 L 899 20 Z M 767 20 L 767 86 L 770 97 L 774 104 L 780 111 L 787 116 L 801 121 L 818 121 L 825 119 L 836 113 L 846 102 L 851 90 L 851 20 L 837 20 L 837 84 L 832 96 L 826 102 L 815 107 L 799 106 L 792 102 L 785 94 L 782 86 L 782 20 Z M 655 20 L 655 119 L 733 119 L 733 105 L 671 105 L 670 104 L 670 20 Z"/></g></svg>
